<svg version="1.1" id="Layer_1" xmlns="http://www.w3.org/2000/svg" xmlns:xlink="http://www.w3.org/1999/xlink" x="0px" y="0px"
	 width="100%" viewBox="0 0 512 512" enable-background="new 0 0 512 512" xml:space="preserve">
<path fill="#FFFFFF" opacity="1.000000" stroke="none" 
	d="
M62.000000,513.000000 
	C41.678268,513.000000 21.356537,513.000000 1.017403,513.000000 
	C1.017403,342.442322 1.017403,171.884628 1.017403,1.000000 
	C65.353859,1.000000 129.708267,1.000000 194.531128,1.468657 
	C194.967468,16.262415 194.935364,30.587517 194.442535,44.947708 
	C179.689865,45.042542 165.397919,45.102283 150.634491,45.098495 
	C120.900780,45.034969 91.638550,45.034969 62.000000,45.034969 
	C62.000000,201.436356 62.000000,357.218170 62.000000,513.000000 
z"/>
<path fill="#FFFFFF" opacity="1.000000" stroke="none" 
	d="
M319.000000,1.000000 
	C383.629791,1.000000 448.259552,1.000000 512.944702,1.000000 
	C512.944702,171.666656 512.944702,342.333344 512.944702,513.000000 
	C492.914459,513.000000 472.925873,513.000000 452.468689,512.531372 
	C452.000031,356.445740 452.000031,200.828796 452.000031,45.166393 
	C421.810364,45.166393 392.351501,45.166393 362.434753,45.105457 
	C347.682770,45.001209 333.388641,44.957897 319.056396,44.452705 
	C319.012207,29.660553 319.006104,15.330276 319.000000,1.000000 
z"/>
<path fill="#FFB007" opacity="1.000000" stroke="none" 
	d="
M362.892609,45.166393 
	C392.351501,45.166393 421.810364,45.166393 452.000031,45.166393 
	C452.000031,200.828796 452.000031,356.445740 452.000000,512.531372 
	C387.312439,513.000000 322.624878,513.000000 257.468658,512.531372 
	C257.041138,497.669952 257.082275,483.277252 257.575806,468.815125 
	C276.276245,468.736847 294.524384,468.745728 312.772308,468.690704 
	C314.533234,468.685394 316.292938,468.283203 318.383484,467.993530 
	C335.742493,450.927460 352.812653,433.974304 369.785950,416.924744 
	C381.937683,404.718353 393.959595,392.382751 406.298279,380.016144 
	C406.684753,379.619598 406.812378,379.311707 407.052246,378.546356 
	C407.164459,282.153320 407.164459,186.217758 407.164459,89.987122 
	C392.034637,89.987122 377.577545,89.987122 363.051392,89.523773 
	C362.952423,74.429077 362.922516,59.797737 362.892609,45.166393 
z"/>
<path fill="#FFB743" opacity="1.000000" stroke="none" 
	d="
M257.123413,468.884521 
	C257.082275,483.277252 257.041138,497.669952 257.000000,512.531372 
	C192.312439,513.000000 127.624878,513.000000 62.468658,513.000000 
	C62.000000,357.218170 62.000000,201.436356 62.000000,45.034969 
	C91.638550,45.034969 120.900780,45.034969 150.615601,45.554070 
	C150.999878,60.714405 150.931534,75.355644 150.404663,89.997780 
	C135.690323,89.998680 121.434525,89.998680 107.119286,89.998680 
	C107.119286,216.530212 107.119286,342.354095 107.119286,468.488647 
	C108.837036,468.597321 110.295380,468.769745 111.753769,468.770172 
	C158.715485,468.784271 205.677216,468.786194 252.638916,468.761200 
	C254.112335,468.760406 255.585571,468.456085 257.104187,468.437897 
	C257.149506,468.582520 257.123413,468.884521 257.123413,468.884521 
z"/>
<path fill="#6BE0F4" opacity="1.000000" stroke="none" 
	d="
M194.903259,44.912621 
	C194.935364,30.587517 194.967468,16.262415 194.999786,1.468657 
	C215.354233,1.000000 235.708450,1.000000 256.531799,1.468657 
	C256.950684,16.571527 256.900421,31.205742 256.398834,45.890759 
	C237.356918,45.952782 218.766266,45.992546 200.175949,45.928776 
	C198.417252,45.922745 196.660782,45.266819 194.903259,44.912621 
z"/>
<path fill="#3FC3D8" opacity="1.000000" stroke="none" 
	d="
M256.850189,45.839954 
	C256.900421,31.205742 256.950684,16.571527 257.000488,1.468657 
	C277.354218,1.000000 297.708466,1.000000 318.531342,1.000000 
	C319.006104,15.330276 319.012207,29.660553 318.669922,44.630978 
	C316.365875,45.501514 314.411041,45.924065 312.454468,45.932400 
	C293.986206,46.011108 275.517670,46.019215 256.998749,45.996429 
	C256.948303,45.945175 256.850189,45.839954 256.850189,45.839954 
z"/>
<path fill="#3FC3D8" opacity="1.000000" stroke="none" 
	d="
M194.442551,44.947708 
	C196.660782,45.266819 198.417252,45.922745 200.175949,45.928776 
	C218.766266,45.992546 237.356918,45.952782 256.398834,45.890759 
	C256.850189,45.839954 256.948303,45.945175 256.979675,46.459568 
	C257.027924,76.166801 257.044769,105.359650 257.033417,134.691101 
	C257.005249,134.829727 256.976349,135.111145 256.517578,135.013351 
	C221.226990,134.915558 186.395142,134.915558 150.863205,134.915558 
	C150.863205,119.476013 150.863205,104.736443 150.863205,89.996880 
	C150.931534,75.355644 150.999878,60.714405 151.087082,45.617596 
	C165.397919,45.102283 179.689865,45.042542 194.442551,44.947708 
z"/>
<path fill="#1398AD" opacity="1.000000" stroke="none" 
	d="
M257.061584,134.552490 
	C257.044769,105.359650 257.027924,76.166801 257.030151,46.510822 
	C275.517670,46.019215 293.986206,46.011108 312.454468,45.932400 
	C314.411041,45.924065 316.365875,45.501514 318.708008,45.092857 
	C333.388641,44.957897 347.682770,45.001209 362.434753,45.105457 
	C362.922516,59.797737 362.952423,74.429077 362.999146,89.989029 
	C363.004395,103.561623 362.780334,116.210777 363.088257,128.846970 
	C363.207458,133.739517 361.591919,135.039505 356.842255,135.012024 
	C325.233032,134.829117 293.622253,134.922668 262.011963,134.901657 
	C260.361786,134.900574 258.711731,134.674057 257.061584,134.552490 
z"/>
<path fill="#6BE0F4" opacity="1.000000" stroke="none" 
	d="
M257.033447,134.691101 
	C258.711731,134.674057 260.361786,134.900574 262.011963,134.901657 
	C293.622253,134.922668 325.233032,134.829117 356.842255,135.012024 
	C361.591919,135.039505 363.207458,133.739517 363.088257,128.846970 
	C362.780334,116.210777 363.004395,103.561623 363.068237,90.452377 
	C377.577545,89.987122 392.034637,89.987122 407.164459,89.987122 
	C407.164459,186.217758 407.164459,282.153320 406.815491,378.546265 
	C406.466522,379.003662 405.991882,379.023560 405.523743,379.023987 
	C377.611176,379.023315 350.166443,379.087646 322.722748,378.944000 
	C318.997681,378.924500 317.903503,380.003387 317.924561,383.737152 
	C318.083313,411.845856 318.036072,439.955719 318.053223,468.065216 
	C316.292938,468.283203 314.533234,468.685394 312.772308,468.690704 
	C294.524384,468.745728 276.276245,468.736847 257.575806,468.815125 
	C257.123413,468.884521 257.149506,468.582520 257.084290,468.024780 
	C257.004791,356.681763 256.990570,245.896454 256.976349,135.111145 
	C256.976349,135.111145 257.005249,134.829727 257.033447,134.691101 
z"/>
<path fill="#3FC3D8" opacity="1.000000" stroke="none" 
	d="
M318.383484,467.993530 
	C318.036072,439.955719 318.083313,411.845856 317.924561,383.737152 
	C317.903503,380.003387 318.997681,378.924500 322.722748,378.944000 
	C350.166443,379.087646 377.611176,379.023315 405.530334,379.294067 
	C406.016510,379.744049 406.027954,379.924408 406.039429,380.104797 
	C393.959595,392.382751 381.937683,404.718353 369.785950,416.924744 
	C352.812653,433.974304 335.742493,450.927460 318.383484,467.993530 
z"/>
<path fill="#4ACADF" opacity="1.000000" stroke="none" 
	d="
M406.298279,380.016144 
	C406.027954,379.924408 406.016510,379.744049 405.998474,379.293640 
	C405.991882,379.023560 406.466522,379.003662 406.703247,379.003723 
	C406.812378,379.311707 406.684753,379.619598 406.298279,380.016144 
z"/>
<path fill="#FFFFFF" opacity="1.000000" stroke="none" 
	d="
M256.517578,135.013351 
	C256.990570,245.896454 257.004791,356.681763 257.038971,467.880188 
	C255.585571,468.456085 254.112335,468.760406 252.638916,468.761200 
	C205.677216,468.786194 158.715485,468.784271 111.753769,468.770172 
	C110.295380,468.769745 108.837036,468.597321 107.119286,468.488647 
	C107.119286,342.354095 107.119286,216.530212 107.119286,89.998680 
	C121.434525,89.998680 135.690323,89.998680 150.404663,89.997780 
	C150.863205,104.736443 150.863205,119.476013 150.863205,134.915558 
	C186.395142,134.915558 221.226990,134.915558 256.517578,135.013351 
z"/>
</svg>